<?xml version="1.0" encoding="UTF-8"?>
<svg id="Layer_1" data-name="Layer 1" xmlns="http://www.w3.org/2000/svg" viewBox="0 0 792 612">
  <defs>
    <style>
      .cls-1 {
        fill: #084c87;
      }

      .cls-2 {
        fill: #064a86;
      }

      .cls-3 {
        fill: #008b99;
      }

      .cls-4 {
        fill: #038c9a;
      }

      .cls-5 {
        fill: #0e508a;
      }

      .cls-6 {
        fill: #12538c;
      }

      .cls-7 {
        fill: #0d4f8a;
      }

      .cls-8 {
        fill: #17578f;
      }

      .cls-9 {
        fill: #0c4f89;
      }

      .cls-10 {
        fill: #0c4e89;
      }

      .cls-11 {
        fill: #038c99;
      }

      .cls-12 {
        fill: #0a4d88;
      }

      .cls-13 {
        fill: #018b99;
      }

      .cls-14 {
        fill: #074b87;
      }

      .cls-15 {
        fill: #1a5990;
      }

      .cls-16 {
        fill: #0f518b;
      }

      .cls-17 {
        fill: #094c88;
      }

      .cls-18 {
        fill: #028b99;
      }

      .cls-19 {
        fill: #fbfcfd;
      }

      .cls-20 {
        fill: #014684;
      }

      .cls-21 {
        fill: #fdfefe;
      }
    </style>
  </defs>
  <path class="cls-20" d="M457.13,143.05v176.4h-18.21v-10.73h-14.48v-14.47h-12.61v16.33h-7.47v-21.47h-7.01v-9.8h-17.28v18.67h-7.47v-8.4h-14.01v11.2l-17.88.83c-9.91-4.36-19.49-9.75-29.45-13.98-1.98-.84-3.96-2-6.16-1.81l-33.85,5.16c-.21.81.34.93.7,1.4,2.36,3.11,6.13,6.46,8.2,9.54.29.43.85,1.31.21,1.65l-60.36-39.08-34.68-.57c-.11.08.74,1.36.94,1.62,2.77,3.58,8.14,7.99,10.28,11.66.26.44.9,1.27.23,1.64l-22.81-15.48-59.44-28.38-62.3,20.05v-112s404.92,0,404.92,0ZM369.41,173.77c-19.07-24.02-60.94-20.57-74.85,7.05-16.96-6.32-37.93,2.23-41.08,21.01l-69.8.02-1.1.77v4.54l72.01.78c5.39-15.97,22.36-19.49,37.36-16.42,3.39-4.65,6.36-9.23,10.84-12.98,17.01-14.24,39.95-12.36,57.35.07,1.37.97,3.89,4.14,5.44,3.44s2.47-3.37,5.51-4.32c8.48-2.63,16.12,3.06,15.51,12,9.76-2.04,19.54-.18,25.13,8.73l3.82,9c.73-15.34-10.61-25-25.66-23.35-.32-6.55-7.14-11.51-13.38-11.59-1.57-.02-6.43,1.65-7.1,1.26ZM248.83,214.92h-99.95v2.8h99.95v-2.8Z"/>
  <path class="cls-2" d="M17.18,383.85l30.34.02c.14,3.44,2.43,7.34,2.74,10.61.16,1.76-1.04,1.92-2.26.81-1.31-1.2-2.4-3.47-3.98-4.89-2.28-2.05-10.56-6.45-12.78-3-.16.25-.98,2.61-.98,2.75v14.23c5.44.8,8.62-1.56,9.39-6.95l2.29-.05v17.73l-2.32-.02c-.29-5.12-4.36-8.12-9.36-7.44v15.17c0,3.92,4.17,3.82,7.03,3.29,4.91-.91,9.18-5.59,12.11-9.38l1.4.28-3.3,12.07-30.31.05v-2.33c3.81.25,4.43-1.57,4.69-4.88.8-10.33-.6-21.73-.06-32.18-.38-2.69-1.82-3.99-4.63-3.54v-2.33Z"/>
  <polygon class="cls-3" points="53.84 360.98 34.93 344.41 55.94 343.24 47.55 311.74 68.55 326.91 87.71 282.58 102.88 316.64 126.93 288.65 135.34 321.31 169.9 293.78 164.3 331.11 191.38 326.45 174.57 348.85 458.06 348.85 458.06 360.98 53.84 360.98"/>
  <path class="cls-13" d="M547.5,146.32c10.49,1.18,16.33,11.37,6.93,18.59l-6.22,2.41c12.37-.37,9.12,12.69,12.61,20.54h-14.01c-1.58-3.47-.68-12.54-3.86-14.58-.41-.26-3.09-1.29-3.38-1.29h-11.91v15.87h-13.08v-41.53h32.93ZM527.65,164.05h12.84c4.74,0,7.77-6.07,3.48-8.61-.58-.35-2.99-1.19-3.48-1.19h-12.84v9.8Z"/>
  <path class="cls-18" d="M522.05,239.65h-12.61c.28-6.55-14.9-5.76-15.8-1.52-.53,2.5,1.32,3.25,3.29,3.99,7.82,2.94,23.47,1.53,25.92,11.89,4.17,17.62-23.37,18.82-34.33,15.17-6.57-2.19-9.06-6.41-9.44-13.2h13.54c-1.38,7.64,10.9,7.68,15.27,5.23,3.65-2.05,2.3-5.25-1.15-6.51-8.4-3.07-27.53-1.36-26.63-15.14.93-14.17,23.15-14.48,33.15-11.45,5.6,1.7,9.03,5.47,8.77,11.53Z"/>
  <path class="cls-11" d="M543.06,266.25v14.47h-12.14v-38.97c0-.14-.64-.66-.47-1.17h12.14v4.2c10.05-10.13,30.94-6,31.32,10.02.39,16.21-20.12,20.13-30.85,11.45ZM550.42,246.31c-10.41,1.43-9.73,16.52.4,17.56,13.72,1.41,13.58-19.48-.4-17.56Z"/>
  <path class="cls-18" d="M602.84,318.51v17.27l4.7-3.94c6.59-3.66,18.87-2.42,22.47,5.02.25.51,1.32,3.54,1.32,3.82v19.37h-12.14v-17.5c0-.37-1.29-2.58-1.68-2.99-2.95-3.16-9.44-2.4-12.33.66-.61.64-2.34,4.03-2.34,4.66v15.17h-12.14v-41.53h12.14Z"/>
  <path class="cls-13" d="M670.1,227.98v24.27c.87.11,1.46-.49,2.1-.94,4.26-3.01,8.4-7.51,12.62-10.73h15.18l-14.94,12.37,16.8,16.57h-16.81c-.08,0-.14-.86-.67-1.41-3.58-3.67-9.05-9.9-12.87-12.83-.47-.36-.59-.9-1.4-.7v14.93h-11.68v-41.53h11.68Z"/>
  <path class="cls-18" d="M581.83,360.05h-11.68v-4.2c-5.17,5.75-15.11,6.91-22.09,4.1-8.06-3.25-7.61-13,.29-16.32,1.26-.53,5.47-1.78,6.62-1.78h14.71c.6-5.74-6.12-6.66-10.3-5.39-1.9.57-2.68,3.52-3.01,3.52h-11.91c-.03-5.29,5.16-8.15,9.71-9.19,5.84-1.33,17.13-1.47,22.38,1.63,2.32,1.37,5.27,5.57,5.27,8.26v19.37ZM569.68,347.45h-9.11c-.54,0-4.35,1.49-4.77,2-.73.89-.83,2.57-.36,3.59,4.41,4.19,14.48,1.23,14.24-5.59Z"/>
  <path class="cls-18" d="M617.32,269.52h-11.68v-3.73s-5.94,3.63-5.94,3.63c-6.1,2.29-18.66,2.25-21.37-5.04-2.11-5.7,1.26-9.79,6.51-11.67.79-.28,4.64-1.38,5.16-1.38h15.18c-.24-2.78-.88-5.09-4-5.57-1.36-.21-5.03-.21-6.3.18-2.4.73-2.11,3.06-2.31,3.06h-12.61c.47-5.79,6.56-8.34,11.56-9.22,6.68-1.17,20.15-.98,24.03,5.62.51.87,1.77,4.42,1.77,5.23v18.9ZM605.18,256.92h-9.11c-.51,0-4.07,1.39-4.56,1.84-1.23,1.13-1.16,3.46.13,4.45,4.06,3.13,13.87-.25,13.54-6.3Z"/>
  <path class="cls-4" d="M659.73,329.85c11.44-.28,26.6,4.34,23.61,18.93-3.53,17.23-42.29,16.89-44.88-.75-1.9-12.94,10.57-17.91,21.27-18.18ZM657.83,336.83c-8.01,1.34-9.26,14.49-.72,17.3,8.43,2.77,16.59-3.7,12.94-12.46-2.04-4.9-7.46-5.63-12.22-4.83Z"/>
  <path class="cls-11" d="M681.21,157.66c9.22-.54,22.16,1.9,24.72,12.36,6.32,25.85-52.06,25.38-44.39-.74,2.43-8.29,11.94-11.16,19.67-11.61ZM682.62,164.17c-11.48.94-11.56,16.66-1.5,18.04,16.83,2.32,15.82-19.21,1.5-18.04Z"/>
  <path class="cls-4" d="M578.09,176.18c-.36,6.78,10.75,8.81,14.03,4.43.49-.66.36-1.63.45-1.63h13.08c-1.4,6.46-6.78,8.96-12.85,9.79-11.26,1.54-27.97-.76-27.32-15.61.81-18.65,32.36-20.31,38.85-7.1.96,1.95,2.22,6.97,2.16,9.07-.02.57-.17.72-.61,1.05h-27.79ZM593.5,170.12c.03-8.6-14.82-8.52-14.95,0h14.95Z"/>
  <path class="cls-18" d="M728.94,348.38h-28.02c.14,5.87,4.96,7.12,10.04,6.53,4.37-.51,4.12-3.73,4.44-3.73h12.61c-1.36,11.59-19.55,11.25-28.03,9.1-9.37-2.37-13.88-10.34-10.76-19.62,3.32-9.86,16.37-11.91,25.35-10.36,9.87,1.7,14.81,8.11,14.36,18.08ZM716.33,342.31c-.21-8.55-14.65-8.32-15.41,0h15.41Z"/>
  <polygon class="cls-13" points="539.79 318.51 539.79 326.91 522.51 326.91 522.51 360.05 508.97 360.05 508.97 326.91 491.69 326.91 491.69 318.51 539.79 318.51"/>
  <path class="cls-14" d="M232.02,429.11v-2.33c3.04.19,4.42-.97,4.69-3.95.97-10.65-.75-22.79-.05-33.6-.53-2.4-2.18-3.49-4.65-3.06v-2.34h21.25c2.26,0,8.38,3.63,10.06,5.34,7.48,7.63,7.79,25.92.68,33.86-2.23,2.49-8.39,6.06-11.68,6.06h-20.32ZM247.77,386.28c-2.39.52-2.5,3.24-2.66,5.28-.64,7.82-.69,22.07,0,29.85.09,1.02.61,4.22,1.39,4.68,6.58,1.33,10.3-1.19,12.28-7.34,2.15-6.67,2.43-23.67-2.22-29.31-1.83-2.21-6.01-3.76-8.78-3.16Z"/>
  <path class="cls-11" d="M740.62,249.45h-11.68c-.75-8.08-16.94-1.77-7.31,1,5.91,1.7,18.8.42,19.88,8.6.65,4.9-1.4,7.72-5.71,9.61-6.45,2.83-23.36,3.5-28.34-2.19-1.12-1.28-2.99-4.96-1.64-6.3h11.91c-.13,2.45,1.1,3.93,3.49,4.21,2.69.32,9.09.23,7.64-3.9-1.04-2.97-16.6-2-20.73-6.35-2.59-2.73-2.45-7.14-.21-10.05,4.41-5.73,18.83-5.35,25.22-3.74,4.7,1.19,8.02,3.82,7.47,9.1Z"/>
  <path class="cls-13" d="M653.75,187.85h-11.68v-16.57c0-.16-1.02-2.7-1.2-3-2.35-3.88-8.24-3.9-11.64-1.43-1.51,1.1-3.97,4.46-3.97,6.3v14.7h-11.68l-.47-28.93h11.68l.24,4.67c2.91-2.14,5.28-4.74,9.08-5.4,6.63-1.14,15.01-.18,18.43,6.37.21.4,1.21,2.83,1.21,2.99v20.3Z"/>
  <polygon class="cls-6" points="694.38 206.05 694.31 209.01 693.68 209.78 514.57 209.78 514.57 206.05 694.38 206.05"/>
  <path class="cls-2" d="M539.33,429.11c-.57-2.91.99-2.4,2.31-3.53,2.35-2.01,2.92-3.45,3.98-6.29,4-10.76,6.34-22.82,10.15-33.73l7.61-3.59,10.49,41.33c.64,2.16,2.35,3.64,4.67,3.5l.02,2.31h-17.28l.02-2.31c7.25,0,1.7-9.49,1.33-13.5l-12.28-.08c-1.25,4.08-5.23,13.26,2.03,13.58l.02,2.31h-13.08ZM561.74,410.45l-4.9-19.14-5.37,19.14h10.27Z"/>
  <rect class="cls-17" x="514.57" y="297.98" width="179.81" height="3.27"/>
  <path class="cls-5" d="M431.67,396.91l5.61,18.67,5.83-18.67h10.27l-.03,1.84-2.81.81c-.45.85-.39,1.78-.45,2.71-.38,5.54-.67,17.63.06,22.86.29,2.1,1.28,2.02,3.2,2.16l.03,1.84h-12.61l.03-1.83c1.5.42,3.24-1.28,3.24-2.6v-22.17l-7.71,26.61-1.68-.29-7.42-24.93v21.23c0,.22,1.06,1.69,1.41,1.87,1.36.68,2.23-.65,1.86,2.1h-9.34l.06-1.81c2.88-.29,3.45-1.84,3.69-4.47.42-4.46.61-17.28-.05-21.45-.3-1.89-1.4-2.44-3.18-2.65l-.06-1.81h10.04Z"/>
  <path class="cls-1" d="M164.76,396.91l5.14,19.13,6.04-18.93c.46-.32,7.6-.36,8.69-.23,1.21.14,2.27.64,1.31,1.88-2.91-.1-3.11,1.58-3.38,4.03-.54,5.01-.42,13.97-.08,19.09.09,1.38.26,4.45,1.44,5.09,1.07.58,2.71-.04,2.32,2.12h-13.08c-.22-2.74,3.74-1.2,3.74-4.9v-21.7l-8.18,26.6-1.53-.8-7.58-24.86v19.83c0,.17.8,3.05.89,3.2.58.94,3.46.36,2.85,2.63h-9.34l.06-1.81c3.07-.1,3.47-2.82,3.69-5.41.39-4.56.56-15.7-.06-20.04-.3-2.13-.97-2.93-3.17-3.13l-.06-1.81h10.27Z"/>
  <path class="cls-18" d="M651.88,240.12v9.33c-3.76-.13-8.61-.08-11.4,2.85-.51.54-2.15,3.39-2.15,3.92v13.3h-12.14v-27.77c0-.14-.64-.66-.47-1.17h12.14l.23,5.6c2.62-5.43,8.21-6.38,13.78-6.07Z"/>
  <path class="cls-5" d="M643.24,396.91c.64.18.82,1.25.7,1.86-1.93-.36-3.74,1.1-3.74,3.04v9.57h9.34v-10.03c0-1.41-1.8-2.68-3.21-2.62l-.06-1.81h12.61l-.03,1.83c-2.31-.01-3.06.9-3.27,3.04-.48,5.04-.6,18.48.07,23.34.29,2.1,1.28,2.02,3.2,2.16l.03,1.84h-12.61l.03-1.83c1.17.4,3.24-1.13,3.24-2.13v-11.43h-9.34v10.97c0,2.99,4.22,1.9,3.74,4.43h-13.08c.31-3.27,2.89-.36,3.29-4.88.5-5.54.56-17.43-.02-22.9-.25-2.33-.94-2.54-3.27-2.56-.19-.52.2-1.86.7-1.86h11.68Z"/>
  <path class="cls-12" d="M711.2,429.11h-9.34c-1.63-3.91-2.7-9.45-5.05-12.92-.73-1.08-1.35-2.23-2.89-2.01v10.97c0,1.72,1.77,2.21,3.24,2.13l.03,1.84h-12.61l.03-1.83c2.51.13,3.07-1.31,3.26-3.51.41-4.61.64-18.15-.05-22.39-.11-.69-.54-1.78-1.11-2.16-1.38-.95-2.6.51-2.14-2.3h16.11c2.28,0,6.39,2.71,7.02,5.12,1.49,5.71-.84,9.13-5.84,11.45,3,2.86,3.42,10.81,6.54,13.06,1.16.84,3.22.47,2.8,2.57ZM693.92,411.85c6.16.82,10.01-5.3,7.1-10.59-1.46-2.66-7.1-2.9-7.1-1.31v11.9Z"/>
  <path class="cls-17" d="M138.02,396.56c20.6-3.48,20.04,33.12,2.64,33.44-16.73.3-16.53-31.09-2.64-33.44ZM139.41,398.41c-3.38.76-4.79,7.01-5.02,9.92-.32,4.07-.59,17.69,4.19,19.17,10.16,3.15,9.12-17.62,7.75-23.14-.86-3.44-2.78-6.89-6.92-5.95Z"/>
  <path class="cls-17" d="M668.11,396.56c20.58-3.48,20,33.12,2.64,33.44-16.73.3-16.53-31.09-2.64-33.44ZM669.5,398.41c-3.38.76-4.79,7.01-5.02,9.92-.32,4.07-.59,17.69,4.19,19.17,6.42,1.99,8.1-5.57,8.45-10.27.37-4.94.71-20.7-7.62-18.82Z"/>
  <path class="cls-17" d="M86.18,396.56c20.64-3.49,20.02,33.13,2.64,33.44-16.67.3-16.48-31.1-2.64-33.44ZM87.57,398.41c-6.2,1.4-5.57,19.43-4.22,24.08,1.08,3.69,3.27,6.58,7.5,4.86,5.7-2.3,4.92-19.69,3.26-24.48-1.02-2.94-3.18-5.22-6.54-4.47Z"/>
  <path class="cls-17" d="M381.81,396.56c20.51-3.47,19.96,33.13,2.64,33.44-16.81.3-16.49-31.1-2.64-33.44ZM383.2,398.41c-6.36,1.44-5.5,19-4.31,23.71.86,3.38,2.06,5.99,6.08,5.62,4.45-.41,5.58-6.89,5.86-10.5.37-4.92.66-20.7-7.62-18.82Z"/>
  <path class="cls-5" d="M110.82,396.91l12.38,21.47v-16.57c0-.42-1.13-2.3-1.6-2.6-1.46-.92-2.58.46-2.13-2.3h9.34l-.08,1.79c-2.19.25-3.66,3.06-3.66,4.97v25.43l-3.51-.46-13.3-22.87v18.9c0,1.05,2.48,2.78,3.68,2.62l.06,1.81h-9.81l.06-1.81c2.43-.09,3.34-1.87,3.64-4.06.59-4.41.47-15.47.06-20.05s-3.79-2.57-3.76-6.28h8.64Z"/>
  <path class="cls-12" d="M507.1,398.78c-.07.12-1.91.25-2.57.94-.19.19-1.17,2.42-1.17,2.56v26.83l-3.66-.08-13.62-23.72v17.97c0,2.2,1.9,4.14,4.15,4.02l.05,1.81h-10.27l.06-1.81c2.9-.19,3.78-2.41,4.09-5.01.52-4.39.52-14.68.08-19.11-.2-1.97-.93-2.48-2.39-3.69-1.12-.93-2.34-.16-1.84-2.58h9.34l12.14,21.47v-14.7c0-.17-.69-3.12-.81-3.39-.53-1.17-1.71-1.38-2.87-1.57l-.06-1.81h9.35s0,1.86,0,1.86Z"/>
  <path class="cls-5" d="M476.28,396.91l1.87,8.86c-.83.13-1.02.03-1.61-.48-1.12-.97-2.26-3.08-3.76-4.18-2.06-1.52-8.64-3.94-8.64.23v10.5c3.65.43,6.08-1.46,6.6-5.07l1.81-.06v12.6l-1.82-.05c-.32-3.6-3-5.65-6.59-5.08v10.5c0,4.22,7.15,2.06,9.11.23l4.66-4.66c2.01.91-1.6,7.11-1.63,8.86h-21.48v-1.86c1.96.19,2.92-.07,3.24-2.14.69-4.5.52-18.55.06-23.33-.1-1.03-.03-1.61-.92-2.35-1.48-1.23-2.88.27-2.38-2.52h21.48Z"/>
  <path class="cls-7" d="M322.15,429.11c-.48-2.32,1.82-1.45,2.84-2.53.67-.72.83-2.31.92-3.28.45-4.97.52-16.1-.07-20.96-.31-2.53-.85-3.7-3.68-3.56l.21-1.42,20.97-.46,2.62,8.15c-1.74,2.24-2.85-1.5-4.16-2.79-1.75-1.72-9.83-5.45-9.83-1.85v11.43c2.18.18,4.12-.54,5.35-2.35.84-1.24.53-3.18,2.59-2.78v12.6c-2.16.4-1.92-2.06-2.87-3.43-1.32-1.9-2.91-1.81-5.07-1.7v11.43c0,3.89,8.36-.2,10.03-1.64.93-.8,2.84-3.91,3.74-3.72.69.14.61.84.51,1.42-.39,2.14-1.87,5.42-2.83,7.45h-21.25Z"/>
  <path class="cls-7" d="M292.03,396.91l2.57,8.86c-2.24.06-3.03-2.54-4.66-3.97-1.76-1.54-6.27-3.9-8.38-2.3-.27.21-.97,1.16-.97,1.37v10.97c1.3.06,3.32-.23,4.38-.99,1.8-1.29,1.04-4.49,3.56-4.14v12.6l-1.44-.28c-.66-3.53-2.81-5.42-6.5-4.86v11.43c0,3.64,7.85.19,9.56-1.18.96-.76,3.53-4.33,4.21-4.19s.61.84.51,1.42c-.39,2.14-1.87,5.42-2.84,7.45h-20.78l.03-1.83c2.51.13,3.07-1.31,3.26-3.51.43-4.87.6-17.27-.07-21.91-.3-2.13-.97-2.93-3.17-3.13l-.06-1.81h20.78Z"/>
  <path class="cls-1" d="M412.06,396.91c5.48.58,9.95,3.54,9.6,9.58-.46,7.93-8.2,8.51-14.5,8.15.22,2.42-.73,11.18,1.42,12.35,1.07.58,2.71-.04,2.32,2.12h-13.08c-.4-2.17,1.25-1.53,2.32-2.12s1.33-2.96,1.43-4.17c.42-4.95.54-15.7-.06-20.51-.29-2.38-1.07-3.81-3.7-3.54-.19-.52.2-1.86.7-1.86,4.19,0,9.53-.42,13.54,0ZM407.16,412.78c10.21,2.49,11.69-14.52,1.73-13.92-.68.12-1.73,2.03-1.73,2.49v11.43Z"/>
  <path class="cls-16" d="M607.51,398.78c-2.1-.01-3.27,1.15-3.62,3.14-1.44,8.08,4.18,26.35-7.94,28-8.43,1.15-12.32-4.48-12.74-12.22-.21-3.94,1.75-15.13-.43-17.77-.93-1.13-4.12-1.31-2.12-3.02h12.38l-.03,1.83c-1.54-.09-2.84.57-3.23,2.15.78,6.76-1.35,16.91.59,23.19,1.95,6.33,10.12,4.5,11.03-2.24.54-3.99.55-16.95,0-20.93-.29-2.1-1.28-2.02-3.2-2.16l-.03-1.83c2.76.49,7.21-1.09,9.34.93-.07.27.06.65,0,.93Z"/>
  <path class="cls-10" d="M507.1,398.78c.06-.24.8-1.2.92-1.65l20.99-.17c.27,2.68,1.78,6,1.92,8.59.06,1.01-.82.92-1.58.72-.53-.14-4.57-8.38-7.77-7.02v26.37c0,1.29,2.17,1.74,3.24,1.66l.03,1.84h-12.61c-.38-2.75.5-1.42,1.86-2.1.36-.18,1.41-1.64,1.41-1.87v-25.9c-3.52-.08-6.28,4.04-7.55,6.92l-1.79.08c.64-2.17.47-5.49.93-7.46Z"/>
  <path class="cls-5" d="M607.51,397.85c.11-.42.62-.9,1.16-.97,6.03-.76,13.8.59,20.03.09,1.02.35,2.14,7.54,2.16,9.04-.3,2.19-4.52-4.53-4.91-4.9-1.11-1.03-2.89-2.07-4.43-1.87v25.43c0,2.99,4.22,1.9,3.74,4.43h-13.08v-1.86c1.17.34,3.27-.36,3.27-1.64v-26.37c-4.23-.3-5.27,4.79-7.25,6.52-.59.51-.8.6-1.62.48-.34-.34.7-6.43.93-7.46.06-.28-.07-.67,0-.93Z"/>
  <path class="cls-5" d="M748.09,398.78c.49,1.97.63,5.34.93,7.46-1.08,1.11-4.19-4.48-5.16-5.34-1.09-.95-2.7-1.86-4.18-1.66v25.43c0,.2.88,1.96,1.12,2.15,1.26.96,2.65-.57,2.15,2.29h-12.61v-1.86c1.17.34,3.27-.36,3.27-1.64v-26.37c-3.74-.92-6.48,6.7-8.17,7.01-1.03.19-.7-.47-.72-1.18-.08-2.53,1.19-5.54,1.47-8.11l21,.16c0,.57.88,1.57.9,1.66v-1.87s12.15,0,12.15,0l-.07,1.8-1.75.59.06,1.92,5.02,10.15c.59-3.38,8.23-12.13,1.4-12.6-.19-.52.2-1.86.7-1.86h9.11c.61,2.49-1.49,1.98-3.04,3.26s-6.77,11.37-7.12,13.42-.43,9.97,0,11.92c.4,1.84,1.47,1.87,3.17,1.74v1.86h-13.08c-.45-2.25,1.58-1.52,2.61-2.3,1.5-1.14,1.42-9.45,1.02-11.37-.33-1.6-7.5-15.27-8.61-16.15-.4-.32-1.06-.41-1.56-.52Z"/>
  <path class="cls-10" d="M306.51,396.91c.64.18.82,1.25.7,1.86-1.48-.14-2.89.33-2.79,2.04.84,2.17,4.44,18.21,5.36,18.5s.64-.5.82-1.03c1.1-3.3,4.43-13.64,4.52-16.53.11-3.31-3.51-1.92-2.77-4.85h8.41c.57,2.61-2.62,2.64-3.29,4.88l-7.67,27.34-3.47.4-8.08-28.09c-.53-1.43-1.51-2.75-3.17-2.67-.19-.52.2-1.86.7-1.86h10.74Z"/>
  <path class="cls-17" d="M73.22,396.45c-.09,1.05,3.66,12.63.03,10.25-7.86-16.87-15.65-6.05-14.5,7.71.87,10.44,8.66,17.59,14.95,5.84l1.34,1.08c-2.8,7.3-9.98,11.41-16.91,6.3-10.54-7.77-5.89-32.94,7.82-31.14,1.35.18,3,1.29,4.17,1.22,1.25-.07,1.93-1.23,3.11-1.27Z"/>
  <path class="cls-1" d="M220.34,396.45c-.29,1.74,2.26,8.84,1.66,9.81-1.39,2.2-3.24-3.25-4.07-4.36-4.39-5.93-9.6-4.44-11.37,2.48-1.28,5.05-1.28,13.54,1.55,18.06,4.18,6.68,10.03,3.82,12.71-2.19l1.34,1.08c-6.24,14.62-21.84,8.92-22.82-5.52-.54-7.84,3.56-20.47,13.32-19.37,1.49.17,3.21,1.42,4.6,1.28,1.04-.11,1.94-1.38,3.09-1.26Z"/>
  <path class="cls-9" d="M359.98,396.91l-.03,1.83c-1.86-.15-2.92.81-3.21,2.63-1.14,6.95.7,16.87.08,24.13.91,4.19,7.84-.13,9.65-1.81.67-.54,2.94-4.18,3.54-3.91.64.28.68.87.62,1.5-.19,2.08-1.52,5.95-2.49,7.83h-20.78l.03-1.83c2.51.13,3.07-1.31,3.26-3.51.63-7.11-.49-15.17-.05-22.39-.3-1.89-1.4-2.44-3.18-2.65l-.06-1.81h12.61Z"/>
  <path class="cls-12" d="M294.13,445.91c0,1.4-1.39,1.33-1.38,2.96.02,3.34,2.56,8.01,2.79,11.5.73-.07.71-.71.9-1.2,1.11-2.8,2.64-8.14,1.07-10.81-.67-1.13-2-1.14-1.97-2.46h8.41l-1.85,2.53,3.49,12.41c.49-2.45,3.89-11.28,2.8-13.07-.38-.63-1.91-.62-1.63-1.87h6.07c.13,1.22-1.17,1.31-1.8,2.16-.4.54-.63,1.3-.87,1.93-2.13,5.72-2.97,12.82-4.85,18.72h-2.24c-1.2-3.88-1.91-8.16-3.2-11.99-.2-.61.19-1.23-.82-1.03l-3.45,12.8-2.37.25c-1.59-5.98-2.63-12.7-4.57-18.53-.25-.74-.45-1.84-.84-2.43-.64-.99-1.89-.54-1.62-1.88h7.94Z"/>
  <path class="cls-9" d="M200.26,396.91l-.03,1.83c-2.51-.13-3.07,1.31-3.26,3.51-.41,4.61-.64,18.15.05,22.39.11.69.54,1.78,1.11,2.16,1.38.95,2.6-.51,2.14,2.3h-12.61l.03-1.84c2.4-.09,2.9-.28,3.18-2.64.63-5.26.56-17,.08-22.37-.09-1-.15-2.06-.93-2.81-1.36-1.3-2.9.32-2.37-2.54h12.61Z"/>
  <path class="cls-9" d="M725.21,396.91l-.03,1.83c-2.51-.13-3.07,1.31-3.26,3.51-.45,5.12-.62,17.96.07,22.86.29,2.1,1.28,2.02,3.2,2.16l.03,1.84h-12.61l.03-1.83c2.51.13,3.07-1.31,3.26-3.51.63-7.11-.49-15.17-.05-22.39-.3-1.89-1.4-2.44-3.18-2.65l-.06-1.81h12.61Z"/>
  <path class="cls-6" d="M441.72,465.28c.34,1.56,4.1,2.17,2.35,3.28-.74.47-6.8.51-7.02-.49s2.51-.8,2.82-4.17c.26-2.78.43-12.02-.03-14.48-.32-1.72-2.07-1.81-2.57-2.57-1.33-2.01,5.24-1.54,6.31-1.18l8.41,14.23v-11.43c0-1.15-1.35-1.38-2.34-1.17v-1.86c1.25.2,6.72-.58,7,.7.25,1.14-2.37.8-2.77,3.29-.83,5.24.62,12.34,0,17.72-.19,1.66-.76,1.99-2.36,1.39l-9.8-16.58v13.3Z"/>
  <path class="cls-17" d="M398.05,450.11c4.96.88,5.12,8.02.24,9.56,1.67,1.67,1.92,5.22,3.23,6.9.74.95,2.24.26,1.89,1.73l-5.14-.22c-1.36-.82-1.81-7.76-4.66-8.17.25,1.81-.41,4.56.08,6.21.4,1.33,2.08.72,1.78,2.19h-7.01c-.32-1.29.84-.87,1.36-1.66.76-1.16.84-13.82.09-14.87-.32-.44-.99-.27-1.44-.28v-1.4c2.89.36,6.84-.49,9.57,0ZM393.61,458.51c6.02.98,6.36-8.95.2-6.56l-.2,6.56Z"/>
  <path class="cls-6" d="M517.14,468.78c-.39-.11-.85-.9-.7-1.4,1.07,0,1.65-.03,1.88-1.17.25-1.25.2-13.69-.21-14.27l-1.64-.46-.02-1.37h8.64c.28,0,3.05,1.34,3.48,1.66,3.82,2.84,3.89,11.7.45,14.86-.75.69-4.01,2.15-4.86,2.15-1.61,0-5.86.33-7.01,0ZM522.05,452.21v14.47c0,1.23,3.23.61,4.15-.52,1.99-2.45,2.26-11.56-.17-13.73-.91-.81-3.56-1.58-3.98-.22Z"/>
  <path class="cls-8" d="M411.83,466.21l2.33,1.17c1.2,1.63-5.41,2.07-6.07.69-.47-.98,1.32-.75,1.75-1.27.83-1,.9-13.35.15-14.51-.62-.96-2.48-.12-1.91-2.17l5.53.07,6.61,11.59v-8.63c0-1.39-1.01-2-2.34-1.63v-1.4s5.61,0,5.61,0v1.4c-.38.01-.99-.11-1.28.09-1.25.88-.28,13.09-.57,15.57-.23,2-1.36,2.22-2.56.65l-7.27-12.1v10.5Z"/>
  <path class="cls-8" d="M474.17,450.11l1.63,5.13c-1.94-.35-2.59-2.57-4.4-3.3-5.23-2.1-3.18,3.29-3.54,6.57,1.23.16,2.11-.16,2.82-1.16s-.1-2.03,1.84-1.64v7.47c-1.93-.41-1.67-3.7-4.67-3.27v6.77c0,1.23,2.7.41,3.4.13,2.06-.81,2.55-2.63,4.53-3.16l-1.63,5.13h-11.21c-.28,0-.9-.96-.7-1.4,1.07,0,1.65-.03,1.88-1.17.25-1.25.2-13.69-.21-14.27l-1.64-.46-.02-1.37h11.91Z"/>
  <path class="cls-9" d="M247.31,449.74c11.23-1.86,11.78,21.56-.95,18.93-7.13-1.48-7.09-17.6.95-18.93ZM246.63,451.65c-2.41,1.99-2.52,13.93.15,15.68,6.05,3.98,6.86-13.5,3.26-15.85-1.01-.66-2.46-.61-3.4.17Z"/>
  <path class="cls-9" d="M331.03,450.11l1.4,5.13c-1.64.37-1.69-1.19-2.79-2.11-1.46-1.22-3.15-1.95-5.1-1.56l-.51,6.95c.78.01,1.59.12,2.33-.23,1.31-.62.8-2.86,2.33-2.57v7.47c-1.61.2-.65-1.79-2.15-2.75-.76-.49-1.64-.57-2.52-.52.28,2.39-.89,5.75,1.25,7.42,2.82.87,6.59-4.32,7.15-3.68l-1.63,4.66h-11.91c-.38-1.52,1-.56,1.45-1.21.65-.94.61-12.13.38-13.93-.18-1.32-.38-1.9-1.82-1.67v-1.4s12.14,0,12.14,0Z"/>
  <path class="cls-9" d="M382.4,450.11l.93,5.13c-1.85-.57-1.94-2.39-4.01-3.22-1.13-.45-2.19-.75-3.41-.46l-.51,6.95c.78.01,1.59.12,2.33-.23,1.31-.62.8-2.86,2.33-2.57v7.47c-1.61.2-.65-1.79-2.15-2.75-.76-.49-1.64-.57-2.52-.52.28,2.39-.89,5.75,1.25,7.42,2.65.82,6.58-4.28,7.16-3.68l-1.63,4.66h-11.91c-.38-1.52,1-.56,1.45-1.21.65-.94.61-12.13.38-13.93-.18-1.32-.38-1.9-1.82-1.67v-1.4s12.14,0,12.14,0Z"/>
  <path class="cls-15" d="M272.18,450.11l.93,5.6c-1.35.09-1.44-1.61-2.38-2.52-1.02-.98-4.39-2.83-5.02-.91l-.06,6.23c3.06.55,2.39-3.18,4.67-2.8v7.47h-1.4c.14-2.49-.76-3.46-3.27-3.27.24,1.74-.52,5.88.42,7.19.38.54,1.92-.07,1.44.97-.5,1.09-6.95,1.1-7.46,0-.47-1.03,1.25-.54,1.66-1.12v-15s-1.64-.46-1.64-.46l-.02-1.37h12.14Z"/>
  <path class="cls-16" d="M346.9,450.11l.93,5.13c-1.87.39-1.95-1.91-3.25-3.05-1.89-1.67-4.95-1.67-5.02,1.34-.08,3.18,6.5,3.21,8.21,6.21,1.37,2.41,1.18,6.34-1.1,8.11-2.85,2.22-5.6-.39-8.64.93l-.94-6.07c1.83.47,2.04,2.76,3.71,3.98,2.24,1.64,5.11,1.24,5.17-1.88.07-3.47-5.74-3.36-7.65-5.95-2.26-3.06-1.14-8.61,2.86-9.13,1.89-.24,3.56,1.43,5.71.38Z"/>
  <path class="cls-8" d="M357.18,451.51c-1.95-.12-3.48,4.19-4.9,4.2l.98-5.63,11.89.23.9,5.4-3.03-3.27-2.1-.93v14.7c0,.8,1.05,1.46,1.87,1.17v1.4s-6.77,0-6.77,0l-.7-1.4,1.87-.7v-15.17Z"/>
  <path class="cls-7" d="M543.06,468.31l1.84-1.69-1.19-4.41-4.83.05c.05,1.29-.71,2.69-.52,3.94.22,1.45,1.75.64,1.43,2.1-1.31-.06-2.66.1-3.97,0-2.85-.21-.2-1.03.25-1.74.39-.61.87-1.76,1.14-2.47,1.14-2.92,2.64-11.33,3.95-13.2.35-.51,2.45-1.38,3.02-1.28l4.55,17,1.8,1.7h-7.47ZM542.12,454.31c-1.14-.14-.74,0-.98.65-.28.77-1.61,5.62-1.35,5.88h3.74s-1.4-6.53-1.4-6.53Z"/>
  <path class="cls-10" d="M504.77,468.31l1.42-2.09-1.26-4c-4.19-.36-5.38-.08-5.26,4.39l1.83,1.69h-5.37s-.23-.92-.23-.92c1.23-.13,1.61-.87,2.1-1.87,1.35-2.75,3.57-13.7,4.54-14.82.35-.4,2.24-.76,2.89-1.01,1.04.22,3.51,13.96,4.44,16.1.71,1.64,1.93,1.08,1.9,2.54h-7.01ZM504.77,460.84l-1.86-6.99-1.87,6.99h3.74Z"/>
  <path class="cls-6" d="M487.02,450.11v1.4s-1.37.02-1.37.02c-.48.52,1.84,8.73,2.33,9.98.19.49.17,1.13.9,1.2-.05-2.31,3.17-9.08,2.1-10.75-.35-.54-1.64-.21-1.16-1.85h5.14c.44,1.7-.93,1.39-1.67,2.29-1.52,1.85-3.25,11.33-4.28,14.4-.58,1.72-.83,3.16-2.85,1.2-1.79-4.42-2.39-10.7-4.24-14.89-.74-1.67-2.22-1.19-1.9-3h7.01Z"/>
  <path class="cls-19" d="M369.41,173.77c.67.39,5.53-1.28,7.1-1.26,6.24.08,13.06,5.05,13.38,11.59,15.06-1.65,26.4,8.01,25.66,23.35l-3.82-9c-5.58-8.91-15.36-10.76-25.13-8.73.61-8.94-7.04-14.63-15.51-12-3.05.95-3.93,3.6-5.51,4.32s-4.07-2.46-5.44-3.44c-17.41-12.42-40.34-14.3-57.35-.07-4.48,3.75-7.45,8.34-10.84,12.98-15-3.07-31.97.45-37.36,16.42l-72.01-.78v-4.54l1.1-.77,69.8-.02c3.15-18.78,24.12-27.33,41.08-21.01,13.92-27.62,55.79-31.07,74.85-7.05Z"/>
  <rect class="cls-21" x="148.88" y="214.92" width="99.95" height="2.8"/>
</svg>